<svg xmlns="http://www.w3.org/2000/svg" viewBox="0 0 64 64">
  <defs>
    <linearGradient id="g" x1="0" y1="0" x2="1" y2="1">
      <stop offset="0%" stop-color="#16a34a"/>
      <stop offset="100%" stop-color="#059669"/>
    </linearGradient>
  </defs>
  <rect x="4" y="4" width="56" height="56" rx="14" fill="url(#g)"/>
  <path
    d="M42 20.2C39.8 18.2 36.7 17 33 17c-8.8 0-15 6.3-15 15s6.2 15 15 15c3.8 0 6.8-1.2 9.1-3.2l-4.2-5.3c-1.3 1.1-2.9 1.7-4.9 1.7c-4.5 0-7.4-3.4-7.4-8.2s2.9-8.2 7.4-8.2c1.9 0 3.6 0.6 4.9 1.7z"
    fill="#ffffff"
  />
  <circle cx="46.5" cy="32" r="2.8" fill="#ffffff" opacity="0.95"/>
</svg>
